#!OML:ASF X:\für Bonn\!DataBase\2005_08_12_Daniel\c3d\Daniel.ASF
:FULLY-SPECIFIED
:DEGREES
166
root 0.907021 6.7611 0.374458 141.3 -20.2526 -178.837
lowerback 81.975 -9.81826 20.2019
upperback 9.41854 -4.95453 2.73791
thorax -8.0305 -7.08365 -1.04375
lowerneck 7.43071 -10.1342 -0.503801
upperneck 14.1398 -15.6433 4.71454
head 3.88658 -7.92824 1.40863
rclavicle -9.54166e-015 2.22639e-014
rhumerus 1.84409 15.65 -56.9417
rradius 34.2961
rwrist -18.7098
rhand -24.7995 8.01957
rfingers 7.12502
rthumb 1.70524 -21.9534
lclavicle -9.54166e-015 2.22639e-014
lhumerus -27.4206 5.18279 92.4915
lradius 40.7862
lwrist -12.9486
lhand -11.071 -7.64043
lfingers 7.12502
lthumb 14.9521 21.7998
rfemur 5.42987 -55.0158 -118.471
rtibia 156.512
rfoot -51.7167 66.5472
rtoes -15.2444
lfemur -34.1319 65.4395 63.518
ltibia 156.532
lfoot -63.3165 -70.9265
ltoes 6.88535
167
root 0.904283 6.7645 0.368999 141.204 -20.2414 -178.782
lowerback 81.7307 -9.77225 20.1769
upperback 9.50255 -4.99296 2.74026
thorax -7.97124 -7.09262 -1.04031
lowerneck 7.23239 -10.1595 -0.402872
upperneck 14.1937 -15.6661 4.62933
head 3.92404 -7.93144 1.35095
rclavicle -1.08139e-013 -3.02153e-014
rhumerus 1.89021 15.6619 -57.0731
rradius 34.0681
rwrist -18.4626
rhand -24.5746 8.20743
rfingers 7.12502
rthumb 1.92241 -21.7637
lclavicle -1.08139e-013 -3.02153e-014
lhumerus -27.216 5.15034 92.5949
lradius 40.5523
lwrist -13.0609
lhand -11.1097 -7.70125
lfingers 7.12502
lthumb 14.9148 21.7418
rfemur 4.90826 -55.1375 -117.914
rtibia 156.356
rfoot -51.4182 67.0667
rtoes -15.1979
lfemur -33.9336 65.2927 63.8991
ltibia 156.48
lfoot -63.9206 -71.2082
ltoes 6.96599
168
root 0.901641 6.77289 0.365173 141.078 -20.2267 -178.729
lowerback 81.5609 -9.72952 20.1253
upperback 9.55729 -5.04195 2.76003
thorax -7.93838 -7.11519 -0.9944
lowerneck 7.0374 -10.163 -0.38374
upperneck 14.2721 -15.6715 4.55527
head 3.97767 -7.93044 1.30905
rclavicle -4.13472e-014 -2.22639e-014
rhumerus 2.00818 15.6563 -57.1795
rradius 33.8024
rwrist -18.2084
rhand -24.2616 8.24039
rfingers 7.12502
rthumb 2.22472 -21.7278
lclavicle -4.13472e-014 -2.22639e-014
lhumerus -26.9917 5.19808 92.7005
lradius 40.2891
lwrist -13.1339
lhand -11.1472 -7.77
lfingers 7.12502
lthumb 14.8787 21.6757
rfemur 4.44503 -55.1994 -117.276
rtibia 156.141
rfoot -51.1168 67.5485
rtoes -14.9871
lfemur -33.7959 65.0419 64.0597
ltibia 156.372
lfoot -64.33 -71.4063
ltoes 7.02008
169
root 0.898858 6.7882 0.359752 140.92 -20.2309 -178.657
lowerback 81.4113 -9.73671 20.1148
upperback 9.60665 -5.10724 2.75821
thorax -7.90432 -7.14195 -0.978857
lowerneck 6.81452 -10.1617 -0.341642
upperneck 14.3742 -15.6762 4.50735
head 4.04588 -7.92631 1.26938
rclavicle 4.45278e-014 1.59028e-015
rhumerus 2.14981 15.6056 -57.3132
rradius 33.4675
rwrist -17.9851
rhand -23.9025 8.25604
rfingers 7.12502
rthumb 2.57153 -21.7082
lclavicle 4.45278e-014 1.59028e-015
lhumerus -26.7447 5.19258 92.7807
lradius 40.0344
lwrist -13.1462
lhand -11.125 -7.70417
lfingers 7.12502
lthumb 14.9001 21.74
rfemur 4.0657 -55.1349 -116.655
rtibia 155.87
rfoot -51.0067 68.0256
rtoes -14.8685
lfemur -33.4664 64.7298 64.3037
ltibia 156.217
lfoot -64.8946 -71.5169
ltoes 7.1099
170
root 0.897246 6.81094 0.354436 140.813 -20.226 -178.601
lowerback 81.2431 -9.70405 20.0713
upperback 9.65616 -5.15409 2.77402
thorax -7.87606 -7.16142 -0.940417
lowerneck 6.58874 -10.1514 -0.371476
upperneck 14.4726 -15.6782 4.51139
head 4.12538 -7.92243 1.25723
rclavicle -1.59028e-015 5.24792e-014
rhumerus 2.30866 15.431 -57.458
rradius 33.1104
rwrist -17.5923
rhand -23.4831 8.24808
rfingers 7.12502
rthumb 2.97659 -21.7109
lclavicle -1.59028e-015 5.24792e-014
lhumerus -26.483 5.29034 92.8596
lradius 39.7812
lwrist -13.2008
lhand -11.1182 -7.64806
lfingers 7.12502
lthumb 14.9066 21.7956
rfemur 3.92711 -55.0497 -116.132
rtibia 155.552
rfoot -50.9658 68.4273
rtoes -14.532
lfemur -33.0571 64.415 64.4874
ltibia 156.018
lfoot -65.3617 -71.465
ltoes 7.19525
171
root 0.89581 6.84206 0.352519 140.775 -20.2256 -178.541
lowerback 81.08 -9.68747 20.0266
upperback 9.66709 -5.18882 2.77764
thorax -7.89386 -7.1676 -0.915203
lowerneck 6.40101 -10.1426 -0.413246
upperneck 14.5674 -15.6844 4.51942
head 4.19879 -7.92248 1.2506
rclavicle -1.1609e-013 -6.67916e-014
rhumerus 2.49433 15.217 -57.599
rradius 32.7075
rwrist -17.1502
rhand -22.955 8.07928
rfingers 7.12502
rthumb 3.48657 -21.8719
lclavicle -1.1609e-013 -6.67916e-014
lhumerus -26.2889 5.31761 92.9059
lradius 39.6056
lwrist -13.2052
lhand -10.9825 -7.5109
lfingers 7.12502
lthumb 15.0374 21.923
rfemur 3.67637 -55.1145 -115.274
rtibia 155.182
rfoot -50.3252 68.7488
rtoes -14.2387
lfemur -33.1406 64.0751 64.0081
ltibia 155.764
lfoot -65.1244 -71.4509
ltoes 7.28575
172
root 0.894014 6.88449 0.353468 140.908 -20.2033 -178.492
lowerback 80.8039 -9.64112 19.9625
upperback 9.68923 -5.20836 2.76537
thorax -7.91877 -7.15173 -0.916687
lowerneck 6.21101 -10.1312 -0.476946
upperneck 14.6317 -15.6867 4.57473
head 4.26848 -7.91952 1.26351
rclavicle -2.8625e-014 -1.24042e-013
rhumerus 2.7119 14.9839 -57.7188
rradius 32.3383
rwrist -16.7185
rhand -22.3346 7.86075
rfingers 7.12502
rthumb 4.08569 -22.0798
lclavicle -2.8625e-014 -1.24042e-013
lhumerus -26.009 5.45148 92.9168
lradius 39.3512
lwrist -13.1885
lhand -10.8769 -7.43168
lfingers 7.12502
lthumb 15.1391 21.9946
rfemur 3.4368 -55.404 -114.196
rtibia 154.764
rfoot -49.0179 69.0298
rtoes -13.7768
lfemur -33.8074 63.7961 62.7527
ltibia 155.456
lfoot -64.081 -71.414
ltoes 7.42619
173
root 0.893132 6.93928 0.357811 141.095 -20.1416 -178.456
lowerback 80.6115 -9.59794 19.8777
upperback 9.64209 -5.19998 2.73156
thorax -8.01892 -7.11922 -0.934641
lowerneck 6.07775 -10.107 -0.539549
upperneck 14.6942 -15.6755 4.63644
head 4.32756 -7.91227 1.28245
rclavicle 2.8625e-014 -2.38542e-014
rhumerus 2.90592 14.6574 -57.8896
rradius 31.9501
rwrist -16.0645
rhand -21.6204 7.52821
rfingers 7.12502
rthumb 4.77531 -22.398
lclavicle 2.8625e-014 -2.38542e-014
lhumerus -25.8036 5.59623 92.9008
lradius 39.1425
lwrist -13.1437
lhand -10.7859 -7.34613
lfingers 7.12502
lthumb 15.2268 22.0735
rfemur 2.87624 -55.8607 -112.471
rtibia 154.267
rfoot -46.7271 69.2286
rtoes -13.2675
lfemur -34.6829 63.4398 61.0633
ltibia 155.067
lfoot -62.7484 -71.2068
ltoes 7.47648
174
root 0.892198 7.00584 0.362632 141.321 -20.0922 -178.426
lowerback 80.4094 -9.55607 19.7869
upperback 9.60247 -5.20218 2.70402
thorax -8.11147 -7.09168 -0.940221
lowerneck 5.95139 -10.0768 -0.632613
upperneck 14.7134 -15.6471 4.7046
head 4.37214 -7.89762 1.31071
rclavicle -1.90833e-014 -1.74931e-014
rhumerus 3.20611 14.2719 -58.035
rradius 31.4633
rwrist -15.2692
rhand -20.8007 7.26152
rfingers 7.12502
rthumb 5.5668 -22.6454
lclavicle -1.90833e-014 -1.74931e-014
lhumerus -25.5201 5.78781 92.862
lradius 38.8581
lwrist -13.1183
lhand -10.6783 -7.32201
lfingers 7.12502
lthumb 15.3303 22.0897
rfemur 2.31888 -56.2909 -110.6
rtibia 153.706
rfoot -44.3522 69.2896
rtoes -12.6326
lfemur -35.7075 62.972 58.9776
ltibia 154.584
lfoot -61.0799 -70.8558
ltoes 7.49944
175
root 0.890495 7.08051 0.369505 141.576 -20.0304 -178.404
lowerback 80.2327 -9.53738 19.7056
upperback 9.52105 -5.19205 2.65267
thorax -8.25063 -7.0514 -0.975228
lowerneck 5.95155 -10.042 -0.783364
upperneck 14.6898 -15.6241 4.85759
head 4.39257 -7.89026 1.38472
rclavicle 5.56597e-014 -1.43125e-014
rhumerus 3.43259 13.8206 -58.2019
rradius 30.9928
rwrist -14.2857
rhand -20.0042 6.95986
rfingers 7.12502
rthumb 6.33572 -22.9254
lclavicle 5.56597e-014 -1.43125e-014
lhumerus -25.3026 5.99101 92.7935
lradius 38.5939
lwrist -13.1443
lhand -10.6233 -7.30707
lfingers 7.12502
lthumb 15.3833 22.1006
rfemur 1.57719 -56.7518 -108.363
rtibia 153.081
rfoot -41.6334 69.2248
rtoes -12.0111
lfemur -36.928 62.4012 56.5385
ltibia 154.039
lfoot -59.0914 -70.4369
ltoes 7.64216
176
root 0.890317 7.1615 0.376475 141.87 -19.963 -178.399
lowerback 80.0428 -9.48033 19.5902
upperback 9.46004 -5.17927 2.60216
thorax -8.37219 -7.01027 -1.00335
lowerneck 5.89377 -10.008 -0.858752
upperneck 14.6864 -15.5931 4.95947
head 4.41834 -7.87482 1.4267
rclavicle 4.92986e-014 9.22361e-014
rhumerus 3.74669 13.1917 -58.427
rradius 30.4413
rwrist -13.0816
rhand -19.1245 6.63324
rfingers 7.12502
rthumb 7.18499 -23.2248
lclavicle 4.92986e-014 9.22361e-014
lhumerus -25.0434 6.1864 92.6892
lradius 38.3071
lwrist -13.0878
lhand -10.6079 -7.34879
lfingers 7.12502
lthumb 15.3982 22.0578
rfemur 0.645606 -57.2336 -105.847
rtibia 152.424
rfoot -38.4896 69.09
rtoes -11.188
lfemur -38.0447 61.7823 54.1246
ltibia 153.474
lfoot -57.5123 -69.7996
ltoes 7.39924
177
root 0.890036 7.24793 0.383798 142.172 -19.8856 -178.388
lowerback 79.8461 -9.40245 19.4674
upperback 9.39043 -5.14311 2.57718
thorax -8.50281 -6.96212 -1.00778
lowerneck 5.95469 -9.98087 -0.963282
upperneck 14.6019 -15.5624 5.0721
head 4.39605 -7.86468 1.48691
rclavicle 1.24042e-013 3.65764e-014
rhumerus 4.01192 12.5783 -58.6159
rradius 29.9008
rwrist -11.694
rhand -18.2779 6.39593
rfingers 7.12502
rthumb 8.00209 -23.4326
lclavicle 1.24042e-013 3.65764e-014
lhumerus -24.7923 6.41154 92.5992
lradius 37.9986
lwrist -13.0858
lhand -10.658 -7.42282
lfingers 7.12502
lthumb 15.3499 21.9874
rfemur -0.437194 -57.6838 -103.099
rtibia 151.739
rfoot -35.5007 68.8131
rtoes -10.4992
lfemur -39.213 61.0861 51.5597
ltibia 152.864
lfoot -55.9946 -69.0456
ltoes 7.15588
178
root 0.889313 7.3378 0.392241 142.53 -19.811 -178.393
lowerback 79.5751 -9.30955 19.3224
upperback 9.34796 -5.12441 2.52877
thorax -8.61661 -6.91263 -1.03311
lowerneck 6.06319 -9.93325 -1.02146
upperneck 14.4805 -15.4992 5.20839
head 4.34819 -7.83765 1.55287
rclavicle -2.70347e-014 -2.8625e-014
rhumerus 4.30059 11.9367 -58.8464
rradius 29.3481
rwrist -10.2455
rhand -17.4842 6.1533
rfingers 7.12502
rthumb 8.76811 -23.6446
lclavicle -2.70347e-014 -2.8625e-014
lhumerus -24.5671 6.5424 92.4522
lradius 37.7358
lwrist -12.9523
lhand -10.7273 -7.47349
lfingers 7.12502
lthumb 15.2832 21.9419
rfemur -1.74563 -58.1687 -100.065
rtibia 151.037
rfoot -32.4822 68.3555
rtoes -9.85989
lfemur -40.5346 60.3306 48.7598
ltibia 152.238
lfoot -54.2701 -68.1813
ltoes 6.89412
179
root 0.889314 7.42986 0.40111 142.904 -19.7346 -178.382
lowerback 79.2803 -9.16416 19.1581
upperback 9.30423 -5.05848 2.54324
thorax -8.73017 -6.85084 -0.998727
lowerneck 6.20056 -9.90058 -1.13726
upperneck 14.3597 -15.4591 5.32939
head 4.30003 -7.82617 1.62384
rclavicle -5.725e-014 -1.27222e-014
rhumerus 4.57262 11.1915 -59.0337
rradius 28.7916
rwrist -8.63622
rhand -16.6957 6.0012
rfingers 7.12502
rthumb 9.52897 -23.7633
lclavicle -5.725e-014 -1.27222e-014
lhumerus -24.3384 6.71799 92.3719
lradius 37.473
lwrist -12.963
lhand -10.8013 -7.43709
lfingers 7.12502
lthumb 15.2119 21.9837
rfemur -3.24206 -58.6281 -96.8084
rtibia 150.326
rfoot -29.4878 67.7775
rtoes -9.16858
lfemur -41.9996 59.4855 45.8318
ltibia 151.594
lfoot -52.4893 -67.34
ltoes 6.6914
180
root 0.888933 7.5257 0.410424 143.286 -19.6594 -178.371
lowerback 78.9332 -9.02995 19.0041
upperback 9.30137 -5.0236 2.5269
thorax -8.80298 -6.79711 -0.99953
lowerneck 6.39256 -9.85986 -1.15697
upperneck 14.1658 -15.3892 5.44745
head 4.20461 -7.79733 1.68536
rclavicle 3.33958e-014 -6.83819e-014
rhumerus 4.8813 10.5893 -59.2153
rradius 28.2426
rwrist -7.1245
rhand -16.099 5.8642
rfingers 7.12502
rthumb 10.1046 -23.8732
lclavicle 3.33958e-014 -6.83819e-014
lhumerus -24.0498 6.87995 92.2062
lradius 37.1543
lwrist -12.9968
lhand -10.9184 -7.46894
lfingers 7.12502
lthumb 15.0991 21.9604
rfemur -4.97427 -59.0194 -93.284
rtibia 149.595
rfoot -26.7037 67.1111
rtoes -8.59654
lfemur -43.6016 58.469 42.6962
ltibia 150.904
lfoot -50.5711 -66.4606
ltoes 6.41165
